<?xml version="1.0" encoding="UTF-8"?>
<!DOCTYPE svg  PUBLIC '-//W3C//DTD SVG 1.0//EN'  'http://www.w3.org/TR/2001/REC-SVG-20010904/DTD/svg10.dtd'>
<svg width="1024px" height="266.26px" enable-background="new 0 0 1024 266.263" version="1.0" viewBox="0 0 1024 266.263" xml:space="preserve" xmlns="http://www.w3.org/2000/svg">
<path d="m-0.582 130.93c0-5.915 2.865-8.348 8.958-8.348 2.957 0 5.567 1.128 7.135 3.745l24.958 40.263h0.17v-37.135c0-4.617 2.616-6.873 6.873-6.873 4.262 0 6.872 2.256 6.872 6.873v49.136c0 5.652-2.433 8.865-8.433 8.865-4.525 0-6.006-0.951-7.83-3.823l-24.788-39.136h-0.177v36.093c0 4.61-2.604 6.866-6.866 6.866s-6.872-2.256-6.872-6.866v-49.66z" fill="#492f92"/>
<path d="m94.043 158.68c-0.695-5.83-5.049-10.085-10.695-10.085-6.354 0-10.184 3.908-11.568 10.085h22.263zm-22.263 7.306c0 6.694 4.348 11.567 11.745 11.567 9.561 0 9.561-6.262 14.689-6.262 3.049 0 5.22 2.61 5.22 4.957 0 7.653-12.263 11.22-19.909 11.22-17.751 0-24.447-12-24.447-23.049 0-14.787 8.958-24.695 24.008-24.695 14.603 0 22.958 10.348 22.958 20.781 0 4.354-1.305 5.482-5.567 5.482h-28.697z" fill="#492f92"/>
<path d="m107.83 150.33c-0.439-1.39-0.865-2.779-0.865-4.701 0-3.305 2.95-5.908 6.17-5.908 4.695 0 5.391 2.518 6.263 6.171l6.695 27.831h0.177l5.39-25.306c1.043-4.958 2.085-8.872 8-8.695 6-0.177 7.213 3.652 8.354 8.695l5.476 25.306h0.171l6.262-27.831c0.788-3.653 1.568-6.171 6.27-6.171 3.213 0 6.17 2.604 6.17 5.908 0 1.922-0.433 3.312-0.872 4.701l-9.306 30.264c-1.823 5.994-3.22 6.866-8.263 6.866-5.305 0-6.609-1.561-7.915-6.603l-6.263-24.958h-0.177l-6.255 24.958c-1.305 5.042-2.61 6.603-7.916 6.603-5.042 0-6.433-0.872-8.262-6.866l-9.304-30.264z" fill="#492f92"/>
<path d="m196.58 139.72c10.61 0 18.532 6 18.532 11.916 0 3.645-2.702 5.475-5.915 5.475-6.007 0-3.83-7.482-12.964-7.482-4.951 0-10.78 3.397-10.78 14.873 0 7.916 3.737 13.049 10.695 13.049 8.873 0 6.958-8.17 13.66-8.17 3.213 0 5.305 2.341 5.305 4.865 0 5.568-6.27 13.213-19.305 13.213-15.66 0-23.057-9.646-23.057-22.958-1e-3 -14.61 8.268-24.781 23.829-24.781" fill="#492f92"/>
<path d="m248.02 164.94c-1.391 1.298-4 1.737-5.482 2l-4.604 0.689c-5.305 0.787-8.177 2.439-8.177 6.269 0 2.865 2.695 5.213 7.043 5.213 6.964 0 11.22-4.519 11.22-9.22v-4.951zm12.695 9.128c0 5.305 1.305 6.525 1.305 8.524 0 2.873-2.695 4.866-5.732 4.866-5.488 0-7.312-3.476-7.481-7.384-4.964 5.47-10.696 7.384-17.397 7.384-7.22 0-14.354-4.958-14.354-12.958 0-10.519 8.007-13.476 17.751-14.604l7.731-0.871c3.042-0.348 5.482-1.042 5.482-4.695s-3.745-5.221-8-5.221c-9.391 0-9.653 6.958-14.696 6.958-3.22 0-5.39-2.263-5.39-4.865 0-5.043 7.128-11.483 20.178-11.483 12.17 0 20.604 3.915 20.604 13.042v21.307z" fill="#492f92"/>
<path d="m285.38 139.72c9.653 0 19.391 3.823 19.391 9.652 0 2.958-2 5.568-5.305 5.568-4.958 0-5.128-5.831-13.135-5.831-4.433 0-7.305 1.214-7.305 3.916 0 2.958 2.873 3.653 6.787 4.518l5.305 1.22c7.22 1.659 15.824 4.695 15.824 13.567 0 10.348-9.993 15.128-19.561 15.128-11.482 0-21.05-5.128-21.05-11.391 0-2.779 1.568-5.298 5.135-5.298 5.475 0 6 7.817 15.39 7.817 4.525 0 7.391-2 7.391-4.604 0-3.213-2.78-3.737-7.305-4.865l-7.482-1.83c-7.383-1.823-13.128-4.872-13.128-13.397-2e-3 -10.347 10.261-14.17 19.048-14.17" fill="#492f92"/>
<path d="m314.99 149.2h-2.177c-3.567 0-5.043-1.39-5.043-4.177 0-2.78 1.476-4.17 5.043-4.17h2.177v-7.738c0-4.177 2.518-6.354 6.341-6.354 3.83 0 6.354 2.177 6.354 6.354v7.738h3.83c3.731 0 5.731 1.127 5.731 4.17 0 3.049-2 4.177-5.731 4.177h-3.83v25.397c0 1.915 1.036 2.958 3.305 2.958h1.824c2.78 0 4.433 1.561 4.433 4.263 0 3.653-3.128 5.652-9.213 5.652-9.22 0-13.043-3.829-13.043-11.304v-26.966z" fill="#492f92"/>
<path d="m341.21 128.94c0-4.177 2.525-6.348 6.354-6.348 3.816 0 6.341 2.171 6.341 6.348v52.185c0 4.178-2.525 6.341-6.341 6.341-3.83 0-6.354-2.164-6.354-6.341v-52.185z" fill="#492f92"/>
<path d="m392.95 158.68c-0.688-5.83-5.036-10.085-10.689-10.085-6.347 0-10.177 3.908-11.567 10.085h22.256zm-22.256 7.306c0 6.694 4.341 11.567 11.744 11.567 9.561 0 9.561-6.262 14.689-6.262 3.049 0 5.22 2.61 5.22 4.957 0 7.653-12.263 11.22-19.909 11.22-17.751 0-24.439-12-24.439-23.049 0-14.787 8.958-24.695 24-24.695 14.61 0 22.958 10.348 22.958 20.781 0 4.354-1.299 5.482-5.567 5.482h-28.696z" fill="#492f92"/>
<path d="m431.74 129.71c0-4.262 2.787-7.128 7.128-7.128 4.354 0 7.135 2.866 7.135 7.128v50.618c0 4.263-2.78 7.134-7.135 7.134-4.341 0-7.128-2.872-7.128-7.134v-50.618z" fill="#492f92"/>
<path d="m452.88 146.07c0-3.83 1.738-6.354 5.738-6.354 4.007 0 5.738 2.525 5.738 6.354v1.652h0.177c3.562-4.695 8.178-8.007 15.397-8.007 7.653 0 16 3.83 16 16.702v24.696c0 3.397-1.39 6.354-6.354 6.354-4.957 0-6.348-2.956-6.348-6.354v-22.171c0-5.128-2.518-8.788-8-8.788-4.433 0-9.653 3.66-9.653 10v20.958c0 3.397-1.39 6.354-6.348 6.354-4.957 0-6.347-2.956-6.347-6.354v-35.042z" fill="#492f92"/>
<path d="m504.54 149.2h-2.177c-3.567 0-5.043-1.39-5.043-4.177 0-2.78 1.476-4.17 5.043-4.17h2.177v-7.738c0-4.177 2.525-6.354 6.348-6.354s6.348 2.177 6.348 6.354v7.738h3.83c3.737 0 5.737 1.127 5.737 4.17 0 3.049-2 4.177-5.737 4.177h-3.83v25.397c0 1.915 1.043 2.958 3.305 2.958h1.823c2.786 0 4.439 1.561 4.439 4.263 0 3.653-3.135 5.652-9.22 5.652-9.22 0-13.043-3.829-13.043-11.304v-26.966z" fill="#492f92"/>
<path d="m561.68 158.68c-0.695-5.83-5.043-10.085-10.696-10.085-6.354 0-10.17 3.908-11.566 10.085h22.262zm-22.263 7.306c0 6.694 4.348 11.567 11.744 11.567 9.562 0 9.562-6.262 14.689-6.262 3.049 0 5.22 2.61 5.22 4.957 0 7.653-12.263 11.22-19.909 11.22-17.751 0-24.446-12-24.446-23.049 0-14.787 8.957-24.695 24.007-24.695 14.617 0 22.958 10.348 22.958 20.781 0 4.354-1.299 5.482-5.567 5.482h-28.696z" fill="#492f92"/>
<path d="m579.2 145.63c0-3.823 2.524-5.915 5.737-5.915 3.22 0 5.745 2.092 5.745 5.915v4.872h0.164c1.488-5.305 4.354-10.787 10.53-10.787 4.001 0 6.958 2.616 6.958 6.178 0 4.695-3.134 6.348-6.269 6.348h-2.256c-5.135 0-7.915 3.567-7.915 14.091v14.781c0 3.391-1.391 6.354-6.348 6.354-4.964 0-6.348-2.963-6.348-6.354v-35.483z" fill="#492f92"/>
<path d="m610.55 146.07c0-3.83 1.738-6.354 5.738-6.354 4.007 0 5.745 2.525 5.745 6.354v1.652h0.177c3.555-4.695 8.171-8.007 15.384-8.007 7.659 0 16.007 3.83 16.007 16.702v24.696c0 3.397-1.39 6.354-6.354 6.354-4.958 0-6.349-2.956-6.349-6.354v-22.171c0-5.128-2.524-8.788-8-8.788-4.433 0-9.653 3.66-9.653 10v20.958c0 3.397-1.39 6.354-6.348 6.354-4.956 0-6.348-2.956-6.348-6.354v-35.042z" fill="#492f92"/>
<path d="m688.39 164.94c-1.39 1.298-4.007 1.737-5.482 2l-4.604 0.689c-5.312 0.787-8.183 2.439-8.183 6.269 0 2.865 2.7 5.213 7.042 5.213 6.964 0 11.227-4.519 11.227-9.22v-4.951zm12.695 9.128c0 5.305 1.305 6.525 1.305 8.524 0 2.873-2.694 4.866-5.743 4.866-5.477 0-7.3-3.476-7.478-7.384-4.956 5.47-10.694 7.384-17.396 7.384-7.22 0-14.347-4.958-14.347-12.958 0-10.519 8-13.476 17.744-14.604l7.737-0.871c3.043-0.348 5.482-1.042 5.482-4.695s-3.744-5.221-8-5.221c-9.397 0-9.653 6.958-14.703 6.958-3.213 0-5.389-2.263-5.389-4.865 0-5.043 7.134-11.483 20.178-11.483 12.177 0 20.609 3.915 20.609 13.042v21.307z" fill="#492f92"/>
<path d="m710.57 149.2h-2.176c-3.567 0-5.043-1.39-5.043-4.177 0-2.78 1.476-4.17 5.043-4.17h2.176v-7.738c0-4.177 2.526-6.354 6.342-6.354 3.83 0 6.354 2.177 6.354 6.354v7.738h3.829c3.738 0 5.737 1.127 5.737 4.17 0 3.049-1.999 4.177-5.737 4.177h-3.829v25.397c0 1.915 1.043 2.958 3.305 2.958h1.823c2.78 0 4.438 1.561 4.438 4.263 0 3.653-3.133 5.652-9.219 5.652-9.22 0-13.044-3.829-13.044-11.304v-26.966z" fill="#492f92"/>
<path d="m735.36 146.07c0-3.39 1.39-6.354 6.348-6.354 4.95 0 6.341 2.964 6.341 6.354v35.043c0 3.391-1.391 6.354-6.341 6.354-4.958 0-6.348-2.963-6.348-6.354v-35.043zm6.348-23.83c3.646 0 6.603 2.958 6.603 6.604 0 3.66-2.957 6.617-6.603 6.617-3.66 0-6.61-2.958-6.61-6.617 0-3.647 2.95-6.604 6.61-6.604" fill="#492f92"/>
<path d="m775.62 178.08c7.567 0 10.78-6.787 10.78-14.525 0-8.269-3.39-14.44-10.78-14.44-7.396 0-10.787 6.171-10.787 14.44 0 7.738 3.22 14.525 10.787 14.525m0-38.355c15.306 0 23.482 10.432 23.482 23.83 0 12.695-6.185 23.909-23.482 23.909-17.306 0-23.482-11.214-23.482-23.909 0-13.398 8.176-23.83 23.482-23.83" fill="#492f92"/>
<path d="m802.49 146.07c0-3.83 1.737-6.354 5.737-6.354 4.007 0 5.745 2.525 5.745 6.354v1.652h0.177c3.555-4.695 8.171-8.007 15.384-8.007 7.659 0 16.007 3.83 16.007 16.702v24.696c0 3.397-1.391 6.354-6.348 6.354-4.964 0-6.354-2.956-6.354-6.354v-22.171c0-5.128-2.518-8.788-7.994-8.788-4.439 0-9.659 3.66-9.659 10v20.958c0 3.397-1.39 6.354-6.347 6.354-4.958 0-6.348-2.956-6.348-6.354v-35.042z" fill="#492f92"/>
<path d="m880.33 164.94c-1.391 1.298-4.007 1.737-5.482 2l-4.604 0.689c-5.305 0.787-8.184 2.439-8.184 6.269 0 2.865 2.701 5.213 7.05 5.213 6.957 0 11.22-4.519 11.22-9.22v-4.951zm12.695 9.128c0 5.305 1.305 6.525 1.305 8.524 0 2.873-2.695 4.866-5.737 4.866-5.482 0-7.306-3.476-7.476-7.384-4.965 5.47-10.703 7.384-17.404 7.384-7.214 0-14.348-4.958-14.348-12.958 0-10.519 8.007-13.476 17.744-14.604l7.738-0.871c3.043-0.348 5.482-1.042 5.482-4.695s-3.744-5.221-8-5.221c-9.391 0-9.653 6.958-14.702 6.958-3.214 0-5.391-2.263-5.391-4.865 0-5.043 7.134-11.483 20.178-11.483 12.178 0 20.61 3.915 20.61 13.042v21.307z" fill="#492f92"/>
<path d="m899.9 128.94c0-4.177 2.523-6.348 6.347-6.348s6.348 2.171 6.348 6.348v52.185c0 4.178-2.524 6.341-6.348 6.341s-6.347-2.164-6.347-6.341v-52.185z" fill="#492f92"/>
<path d="m12.571 236.45l-12.275-20.4c-0.492-0.793-0.859-1.711-0.859-2.63 0-3.422 3.115-4.583 5.069-4.583 2.387 0 3.488 0.977 4.518 2.931l8.741 16.066 8.676-16.066c1.161-2.19 2.256-2.931 4.334-2.931 1.836 0 4.951 1.161 4.951 4.583 0 0.918-0.367 1.836-0.858 2.63l-12.276 20.4v12.945c0 2.997-1.954 5.01-5.009 5.01-3.056 0-5.01-2.013-5.01-5.01v-12.945z" fill="#fdbb30"/>
<path d="m49.832 247.82c5.312 0 7.574-4.767 7.574-10.204 0-5.81-2.38-10.144-7.574-10.144-5.187 0-7.574 4.334-7.574 10.144-1e-3 5.437 2.262 10.204 7.574 10.204m0-26.945c10.754 0 16.492 7.332 16.492 16.741 0 8.918-4.334 16.794-16.492 16.794-12.151 0-16.493-7.876-16.493-16.794 0-9.409 5.744-16.741 16.493-16.741" fill="#fdbb30"/>
<path d="m101.7 249.95c0 2.689-1.219 4.459-4.033 4.459-2.807 0-4.033-1.77-4.033-4.459v-1.161h-0.118c-2.505 3.299-5.745 5.62-10.814 5.62-5.376 0-11.239-2.689-11.239-11.725v-17.351c0-2.373 0.978-4.459 4.459-4.459 3.482 0 4.459 2.086 4.459 4.459v15.581c0 3.606 1.77 6.17 5.62 6.17 3.115 0 6.78-2.564 6.78-7.022v-14.729c0-2.373 0.977-4.459 4.459-4.459 3.476 0 4.459 2.086 4.459 4.459v24.617z" fill="#fdbb30"/>
<path d="m108.66 225.03c0-2.689 1.771-4.158 4.026-4.158 2.263 0 4.04 1.469 4.04 4.158v3.417h0.118c1.042-3.726 3.056-7.575 7.397-7.575 2.806 0 4.878 1.837 4.878 4.341 0 3.292-2.196 4.459-4.399 4.459h-1.581c-3.606 0-5.561 2.505-5.561 9.896v10.38c0 2.387-0.977 4.459-4.458 4.459-3.483 0-4.459-2.072-4.459-4.459v-24.918z" fill="#fdbb30"/>
<path d="m167.49 219.71h-0.131l-5.921 17.653h11.731l-5.679-17.653zm-6.053-7.816c0.852-2.263 2.446-3.056 4.892-3.056h2.38c2.255 0 4.269 0.551 5.37 3.666l12.092 33.66c0.374 0.977 0.977 2.747 0.977 3.843 0 2.446-2.138 4.4-4.702 4.4-2.197 0-3.784-0.793-4.518-2.748l-2.564-7.331h-16.125l-2.63 7.331c-0.675 1.954-2.078 2.748-4.459 2.748-2.747 0-4.643-1.711-4.643-4.4 0-1.096 0.616-2.866 0.984-3.843l12.946-34.27z" fill="#fdbb30"/>
<path d="m191.12 225.33c0-2.38 0.983-4.459 4.459-4.459 3.482 0 4.459 2.079 4.459 4.459v24.618c0 2.38-0.977 4.459-4.459 4.459-3.476 0-4.459-2.079-4.459-4.459v-24.618zm4.459-16.735c2.564 0 4.649 2.078 4.649 4.644 0 2.563-2.085 4.642-4.649 4.642s-4.636-2.079-4.636-4.642c0-2.566 2.072-4.644 4.636-4.644" fill="#fdbb30"/>
<path d="m207.5 225.03c0-2.689 1.77-4.158 4.026-4.158 2.263 0 4.04 1.469 4.04 4.158v3.417h0.118c1.042-3.726 3.056-7.575 7.39-7.575 2.807 0 4.885 1.837 4.885 4.341 0 3.292-2.196 4.459-4.4 4.459h-1.586c-3.6 0-5.554 2.505-5.554 9.896v10.38c0 2.387-0.983 4.459-4.459 4.459-3.482 0-4.459-2.072-4.459-4.459v-24.918z" fill="#fdbb30"/>
<path d="m246.83 227.84c-5.193 0-7.147 4.643-7.147 9.712 0 4.583 1.717 9.954 7.147 9.896 5.679 0 7.096-5.738 7.096-9.896 0-5.253-2.328-9.587-7.096-9.712m-15.567-2.747c0-2.748 1.278-4.217 4.026-4.217 2.623 0 4.026 1.469 4.026 4.217v1.402h0.132c1.462-3.782 5.069-5.62 9.403-5.62 7.449 0 13.987 5.443 13.987 16.984 0 8.552-4.335 16.551-13.745 16.551-4.085 0-7.142-1.652-8.793-4.518h-0.125v11.915c0 2.924-1.771 4.459-4.459 4.459-2.682 0-4.452-1.535-4.452-4.459v-36.714z" fill="#fdbb30"/>
<path d="m283.12 247.82c5.312 0 7.574-4.767 7.574-10.204 0-5.81-2.387-10.144-7.574-10.144-5.194 0-7.574 4.334-7.574 10.144 0 5.437 2.262 10.204 7.574 10.204m0-26.945c10.748 0 16.492 7.332 16.492 16.741 0 8.918-4.341 16.794-16.492 16.794-12.158 0-16.492-7.876-16.492-16.794 0-9.409 5.737-16.741 16.492-16.741" fill="#fdbb30"/>
<path d="m305.23 225.03c0-2.689 1.771-4.158 4.027-4.158 2.262 0 4.039 1.469 4.039 4.158v3.417h0.118c1.036-3.726 3.056-7.575 7.391-7.575 2.813 0 4.885 1.837 4.885 4.341 0 3.292-2.197 4.459-4.4 4.459h-1.581c-3.606 0-5.561 2.505-5.561 9.896v10.38c0 2.387-0.983 4.459-4.458 4.459-3.489 0-4.459-2.072-4.459-4.459v-24.918z" fill="#fdbb30"/>
<path d="m331.31 227.53h-1.535c-2.499 0-3.541-0.978-3.541-2.938 0-1.954 1.042-2.925 3.541-2.925h1.535v-5.443c0-2.925 1.771-4.459 4.452-4.459 2.689 0 4.459 1.534 4.459 4.459v5.443h2.688c2.629 0 4.033 0.787 4.033 2.925 0 2.144-1.403 2.938-4.033 2.938h-2.688v17.836c0 1.337 0.734 2.072 2.328 2.072h1.278c1.954 0 3.115 1.101 3.115 2.991 0 2.57-2.203 3.979-6.479 3.979-6.472 0-9.154-2.695-9.154-7.947v-18.931z" fill="#fdbb30"/>
<path d="m1023.1 79.648c-6.892-10.295-24.013-8.813-40.361-9.555-9.219-0.419-18.859 0.781-25.488-2.656 8.42-6.131 25.79-16.427 38.237-19.652 4.189-1.082 9.036-0.505 10.615-4.781 1.338-3.619-0.839-8.951-3.711-9.554-3.993-0.84-8.053 3.888-9.567 4.78-10.701 6.342-25.155 11.096-36.637 16.46-1.017-12.604-0.112-27.142-2.118-38.769-2.439-0.387-2.4-3.259-5.312-3.181-2.479 0.708-2.236 4.138-4.249 5.312-4.86-6.826-8.23-15.141-16.99-18.053h-4.25c-11.626 7.062-6.695 43.417-2.655 56.29-8.932-4.708-12.559-14.708-26.552-14.348-4.178 7.981 1.363 13.535 6.367 17.528 5.095 4.06 19.317 7.095 18.059 14.866-0.399 2.485-7.501 5.915-11.146 7.967-11.805 6.624-27.09 12.348-39.3 17.522-2.315 0.983-4.892 2.905-6.898 4.255v2.65c0.957 1.515 0.688 4.262 2.118 5.311 10.406 1.226 18.734-5.036 27.083-9.03 10.773-5.154 26.145-9.41 38.768-6.374 3.929 8.459 9.751 15.023 10.085 27.089 1.594 2.117 3.535 3.895 5.843 5.305h3.187c1.812-1.194 3.594-2.42 4.774-4.243 0.708-7.692-2.806-16.558 0-22.84 4.826 5.2 10.702 22.742 20.716 12.216 1.22-1.436 0.189-5.128 0.531-7.436-6.139-4.669-9.855-11.738-11.687-20.709 16.427 0.308 36.973 7.13 54.697 3.18 9.324-2.074 5.841-9.55 5.841-9.55zm-83.903 9.037c-3.357-1.43-3.737-5.824-5.836-8.505 1.627-4.807 6.898-3.705 7.961 0 0.812 2.865-2.322 6.484-2.125 8.505zm2.125-26.034c-15.587-4.151-18.171-27.646-14.334-46.198h1.593c6.196 13.115 14.02 27.378 12.741 46.198z" fill="#fdbb30"/>
</svg>
